<?xml version="1.0" encoding="UTF-8"?><svg id="Layer_2" xmlns="http://www.w3.org/2000/svg" viewBox="0 0 59.03 69.08"><defs><style>.cls-1{fill:#fff;}</style></defs><g id="Layer_1-2"><path class="cls-1" d="M8,29.51c0,11.56,9.16,21.01,20.61,21.49l-3.21-8.67c-.4-1.09-.2-2.27.54-3.17.75-.89,1.87-1.31,3.02-1.11l25.91,4.43c1.14.2,2.07.97,2.47,2.06.4,1.09.2,2.27-.54,3.16l-16.8,20.23c-.37.44-.83.77-1.35.96-.52.19-1.09.24-1.66.15-1.15-.19-2.07-.97-2.47-2.06l-3.12-8.24c-.63.21-1.2.28-1.88.28C13.24,59.02,0,45.78,0,29.51S13.24,0,29.52,0s29.51,13.23,29.51,29.51c0,2.2-1.79,4-4,4s-4-1.8-4-4c0-11.87-9.65-21.51-21.51-21.51S8,17.64,8,29.51Z"/></g></svg>